<svg width="57" height="25" viewBox="0 0 57 25" fill="none" xmlns="http://www.w3.org/2000/svg">
<rect width="57" height="25" fill="#F5F9FD"/>
<path d="M9.47656 14.8418C9.35352 15.8945 8.96387 16.708 8.30762 17.2822C7.65592 17.8519 6.78776 18.1367 5.70312 18.1367C4.52734 18.1367 3.58398 17.7152 2.87305 16.8721C2.16667 16.029 1.81348 14.901 1.81348 13.4883V12.5312C1.81348 11.6061 1.97754 10.7926 2.30566 10.0908C2.63835 9.389 3.10775 8.85124 3.71387 8.47754C4.31999 8.09928 5.02181 7.91016 5.81934 7.91016C6.87663 7.91016 7.72428 8.20638 8.3623 8.79883C9.00033 9.38672 9.37174 10.2025 9.47656 11.2461H8.15723C8.04329 10.4531 7.79492 9.87891 7.41211 9.52344C7.03385 9.16797 6.50293 8.99023 5.81934 8.99023C4.98079 8.99023 4.32227 9.30013 3.84375 9.91992C3.36979 10.5397 3.13281 11.4215 3.13281 12.5654V13.5293C3.13281 14.6094 3.3584 15.4684 3.80957 16.1064C4.26074 16.7445 4.89193 17.0635 5.70312 17.0635C6.43229 17.0635 6.99056 16.8994 7.37793 16.5713C7.76986 16.2386 8.02962 15.6621 8.15723 14.8418H9.47656ZM17.3242 14.3838C17.3242 15.5094 17.0667 16.4163 16.5518 17.1045C16.0368 17.7926 15.3395 18.1367 14.46 18.1367C13.5622 18.1367 12.8558 17.8519 12.3408 17.2822V20.8438H11.0762V10.6035H12.2314L12.293 11.4238C12.8079 10.7858 13.5234 10.4668 14.4395 10.4668C15.3281 10.4668 16.0299 10.8018 16.5449 11.4717C17.0645 12.1416 17.3242 13.0736 17.3242 14.2676V14.3838ZM16.0596 14.2402C16.0596 13.4062 15.8818 12.7477 15.5264 12.2646C15.1709 11.7816 14.6833 11.54 14.0635 11.54C13.2979 11.54 12.7236 11.8796 12.3408 12.5586V16.0928C12.7191 16.7673 13.2979 17.1045 14.0771 17.1045C14.6833 17.1045 15.1641 16.8652 15.5195 16.3867C15.8796 15.9036 16.0596 15.1882 16.0596 14.2402ZM18.9648 17.3369C18.9648 17.1182 19.0286 16.9359 19.1562 16.79C19.2884 16.6442 19.4844 16.5713 19.7441 16.5713C20.0039 16.5713 20.1999 16.6442 20.332 16.79C20.4688 16.9359 20.5371 17.1182 20.5371 17.3369C20.5371 17.5465 20.4688 17.722 20.332 17.8633C20.1999 18.0046 20.0039 18.0752 19.7441 18.0752C19.4844 18.0752 19.2884 18.0046 19.1562 17.8633C19.0286 17.722 18.9648 17.5465 18.9648 17.3369ZM29.3486 11.0273C30.2783 11.0273 31.0212 11.3395 31.5771 11.9639C32.1377 12.5837 32.418 13.4017 32.418 14.418V14.5342C32.418 15.2314 32.2835 15.8558 32.0146 16.4072C31.7458 16.9541 31.3584 17.3802 30.8525 17.6855C30.3512 17.9863 29.7725 18.1367 29.1162 18.1367C28.1227 18.1367 27.3229 17.8063 26.7168 17.1455C26.1107 16.4801 25.8076 15.5892 25.8076 14.4727V13.8574C25.8076 12.3034 26.0947 11.0684 26.6689 10.1523C27.2477 9.23633 28.0999 8.67806 29.2256 8.47754C29.8636 8.36361 30.2943 8.22461 30.5176 8.06055C30.7409 7.89648 30.8525 7.6709 30.8525 7.38379H31.8916C31.8916 7.95345 31.7617 8.39779 31.502 8.7168C31.2467 9.03581 30.8366 9.26139 30.2715 9.39355L29.3281 9.60547C28.5762 9.7832 28.0111 10.084 27.6328 10.5078C27.2591 10.9271 27.0153 11.4876 26.9014 12.1895C27.5713 11.4147 28.387 11.0273 29.3486 11.0273ZM29.1025 12.0664C28.4827 12.0664 27.9906 12.276 27.626 12.6953C27.2614 13.11 27.0791 13.6865 27.0791 14.4248V14.5342C27.0791 15.3271 27.2614 15.9561 27.626 16.4209C27.9951 16.8812 28.4919 17.1113 29.1162 17.1113C29.7451 17.1113 30.2419 16.8789 30.6064 16.4141C30.971 15.9492 31.1533 15.2702 31.1533 14.377C31.1533 13.6797 30.9688 13.1214 30.5996 12.7021C30.235 12.2783 29.736 12.0664 29.1025 12.0664ZM38.4062 18C38.3333 17.8542 38.2741 17.5944 38.2285 17.2207C37.6406 17.8314 36.9388 18.1367 36.123 18.1367C35.3939 18.1367 34.7946 17.9316 34.3252 17.5215C33.8604 17.1068 33.6279 16.5827 33.6279 15.9492C33.6279 15.179 33.9196 14.582 34.5029 14.1582C35.0908 13.7298 35.9157 13.5156 36.9775 13.5156H38.208V12.9346C38.208 12.4925 38.0758 12.1416 37.8115 11.8818C37.5472 11.6175 37.1576 11.4854 36.6426 11.4854C36.1914 11.4854 35.8132 11.5993 35.5078 11.8271C35.2025 12.055 35.0498 12.3307 35.0498 12.6543H33.7783C33.7783 12.2852 33.9082 11.9297 34.168 11.5879C34.4323 11.2415 34.7878 10.9681 35.2344 10.7676C35.6855 10.5671 36.18 10.4668 36.7178 10.4668C37.57 10.4668 38.2376 10.681 38.7207 11.1094C39.2038 11.5332 39.4544 12.1188 39.4727 12.8662V16.2705C39.4727 16.9495 39.5592 17.4896 39.7324 17.8906V18H38.4062ZM36.3076 17.0361C36.7041 17.0361 37.0801 16.9336 37.4355 16.7285C37.791 16.5234 38.0485 16.2568 38.208 15.9287V14.4111H37.2168C35.6673 14.4111 34.8926 14.8646 34.8926 15.7715C34.8926 16.168 35.0247 16.4779 35.2891 16.7012C35.5534 16.9245 35.8929 17.0361 36.3076 17.0361ZM47.5186 10.6035V18H46.2471V11.6494H43.7314L43.5811 14.418C43.499 15.6895 43.2848 16.5986 42.9385 17.1455C42.5967 17.6924 42.0521 17.9772 41.3047 18H40.7988V16.8857L41.1611 16.8584C41.5713 16.8128 41.8652 16.5758 42.043 16.1475C42.2207 15.7191 42.3346 14.9261 42.3848 13.7686L42.5215 10.6035H47.5186ZM55.6123 10.6035V18H54.3408V11.6494H51.8252L51.6748 14.418C51.5928 15.6895 51.3786 16.5986 51.0322 17.1455C50.6904 17.6924 50.1458 17.9772 49.3984 18H48.8926V16.8857L49.2549 16.8584C49.665 16.8128 49.959 16.5758 50.1367 16.1475C50.3145 15.7191 50.4284 14.9261 50.4785 13.7686L50.6152 10.6035H55.6123Z" fill="#808191"/>
</svg>
