<svg width="15" height="16" viewBox="0 0 15 16" fill="none" xmlns="http://www.w3.org/2000/svg">
<rect width="15" height="16" fill="#F5F9FD"/>
<path d="M1.02539 3.51562C1.02539 2.66276 1.29557 1.95964 1.83594 1.40625C2.38281 0.852865 3.08268 0.576172 3.93555 0.576172C4.80143 0.576172 5.5013 0.85612 6.03516 1.41602C6.57552 1.9694 6.8457 2.6888 6.8457 3.57422V4.26758C6.8457 5.12695 6.57227 5.83008 6.02539 6.37695C5.48503 6.91732 4.79492 7.1875 3.95508 7.1875C3.10872 7.1875 2.40885 6.91732 1.85547 6.37695C1.30208 5.83008 1.02539 5.10417 1.02539 4.19922V3.51562ZM2.37305 4.26758C2.37305 4.77539 2.51628 5.19531 2.80273 5.52734C3.08919 5.85286 3.47331 6.01562 3.95508 6.01562C4.41732 6.01562 4.78841 5.85612 5.06836 5.53711C5.35482 5.2181 5.49805 4.7819 5.49805 4.22852V3.51562C5.49805 3.00781 5.35807 2.58789 5.07812 2.25586C4.79818 1.92383 4.41732 1.75781 3.93555 1.75781C3.45378 1.75781 3.07292 1.92383 2.79297 2.25586C2.51302 2.58789 2.37305 3.02083 2.37305 3.55469V4.26758ZM7.94922 11.5137C7.94922 10.6608 8.2194 9.96094 8.75977 9.41406C9.30664 8.86068 10.0065 8.58398 10.8594 8.58398C11.7122 8.58398 12.4121 8.85742 12.959 9.4043C13.5059 9.95117 13.7793 10.6771 13.7793 11.582V12.2754C13.7793 13.1283 13.5059 13.8314 12.959 14.3848C12.4186 14.9316 11.7253 15.2051 10.8789 15.2051C10.0326 15.2051 9.33268 14.9349 8.7793 14.3945C8.22591 13.8477 7.94922 13.1217 7.94922 12.2168V11.5137ZM9.29688 12.2754C9.29688 12.7897 9.4401 13.2129 9.72656 13.5449C10.013 13.8704 10.3971 14.0332 10.8789 14.0332C11.3477 14.0332 11.722 13.8737 12.002 13.5547C12.2819 13.2292 12.4219 12.7897 12.4219 12.2363V11.5137C12.4219 10.9993 12.2786 10.5794 11.9922 10.2539C11.7122 9.92839 11.3346 9.76562 10.8594 9.76562C10.3971 9.76562 10.0195 9.92839 9.72656 10.2539C9.4401 10.5729 9.29688 11.0059 9.29688 11.5527V12.2754ZM4.36523 13.9258L3.33984 13.2812L10.2832 2.16797L11.3086 2.8125L4.36523 13.9258Z" fill="#808191"/>
</svg>
